# xmcd
#
# Track frame offsets: 
#        150
#        15903
#        32608
#        46497
#        62226
#        77471
#        93923
#        111120
#        127375
#        142707
#        156959
#        171390
#
# Disc length: 2424 seconds
#
# Revision: 0
# Processed by: cddbd v1.5.2PL0 Copyright (c) Steve Scherf et al.
# Submitted via: ExactAudioCopyFreeDBPlugin 1.0
#
DISCID=9509760c
DTITLE=Larkin Poe - RESKINNED
DYEAR=2016
DGENRE=Rock
TTITLE0=Sucker Puncher
TTITLE1=Trouble In Mind
TTITLE2=Don't
TTITLE3=When God Closes A Door
TTITLE4=P-R-O-B-L-E-M
TTITLE5=Stubborn Love
TTITLE6=Jailbreak
TTITLE7=Banks Of Allatoona
TTITLE8=Blunt
TTITLE9=Sugar High
TTITLE10=Crown Of Fire
TTITLE11=Overachiever
EXTD=
EXTT0=
EXTT1=
EXTT2=
EXTT3=
EXTT4=
EXTT5=
EXTT6=
EXTT7=
EXTT8=
EXTT9=
EXTT10=
EXTT11=
PLAYORDER=
